<svg width="24" height="27" viewBox="0 0 24 27" fill="none" xmlns="http://www.w3.org/2000/svg">
<g clip-path="url(#clip0_423_23569)" filter="url(#filter0_d_423_23569)">
<path d="M18.2987 5.70875C17.9087 5.31875 17.2787 5.31875 16.8887 5.70875L11.9988 10.5888L7.10875 5.69875C6.71875 5.30875 6.08875 5.30875 5.69875 5.69875C5.30875 6.08875 5.30875 6.71875 5.69875 7.10875L10.5888 11.9988L5.69875 16.8887C5.30875 17.2787 5.30875 17.9087 5.69875 18.2987C6.08875 18.6887 6.71875 18.6887 7.10875 18.2987L11.9988 13.4087L16.8887 18.2987C17.2787 18.6887 17.9087 18.6887 18.2987 18.2987C18.6887 17.9087 18.6887 17.2787 18.2987 16.8887L13.4087 11.9988L18.2987 7.10875C18.6787 6.72875 18.6787 6.08875 18.2987 5.70875Z" fill="#111322"/>
</g>
<defs>
<filter id="filter0_d_423_23569" x="-4" y="0" width="32" height="32" filterUnits="userSpaceOnUse" color-interpolation-filters="sRGB">
<feFlood flood-opacity="0" result="BackgroundImageFix"/>
<feColorMatrix in="SourceAlpha" type="matrix" values="0 0 0 0 0 0 0 0 0 0 0 0 0 0 0 0 0 0 127 0" result="hardAlpha"/>
<feOffset dy="4"/>
<feGaussianBlur stdDeviation="2"/>
<feComposite in2="hardAlpha" operator="out"/>
<feColorMatrix type="matrix" values="0 0 0 0 0 0 0 0 0 0 0 0 0 0 0 0 0 0 0.25 0"/>
<feBlend mode="normal" in2="BackgroundImageFix" result="effect1_dropShadow_423_23569"/>
<feBlend mode="normal" in="SourceGraphic" in2="effect1_dropShadow_423_23569" result="shape"/>
</filter>
<clipPath id="clip0_423_23569">
<rect width="24" height="24" fill="white"/>
</clipPath>
</defs>
</svg>
