<svg width="16" height="16" viewBox="0 0 16 16" fill="none" xmlns="http://www.w3.org/2000/svg">
<path d="M12.5138 1.8876C11.9061 1.27434 11.1963 0.798968 10.4028 0.473705C8.01479 -0.501452 5.29479 0.057074 3.47422 1.89012C2.26656 3.10949 1.59998 4.66191 1.59998 6.26717C1.59998 7.86991 2.26614 9.42401 3.47422 10.6421L4.13871 11.3059C5.47229 12.6343 6.62232 13.7813 7.60903 15.3756L7.99286 16L8.3792 15.3756C9.36591 13.7813 10.5159 12.6343 11.8472 11.3074L12.5136 10.64C15.0287 8.10443 15.0287 4.42338 12.5138 1.8876ZM9.97904 8.55601C8.88268 9.66296 7.10555 9.66296 6.00899 8.55601C4.91284 7.45285 4.91284 5.66128 6.00899 4.55602C7.10555 3.45286 8.88268 3.45286 9.97904 4.55602C11.0729 5.66128 11.0729 7.45243 9.97904 8.55601Z" fill="#FF8D72"/>
</svg>
