<svg width="16" height="20" viewBox="0 0 16 20" fill="none" xmlns="http://www.w3.org/2000/svg">
<path d="M13.6423 2.36047C12.8827 1.5939 11.9954 0.999686 11.0035 0.593108C8.01852 -0.625838 4.61852 0.072319 2.3428 2.36363C0.833228 3.88784 0 5.82836 0 7.83494C0 9.83836 0.832706 11.781 2.3428 13.3036L3.17342 14.1334C4.8404 15.7939 6.27793 17.2276 7.51132 19.2204L7.99111 20.001L8.47403 19.2204C9.70742 17.2276 11.1449 15.7939 12.8091 14.1352L13.642 13.301C16.7859 10.1315 16.7859 5.53021 13.6423 2.36047ZM10.4738 10.696C9.10338 12.0797 6.88196 12.0797 5.51126 10.696C4.14108 9.31704 4.14108 7.07757 5.51126 5.696C6.88196 4.31705 9.10338 4.31705 10.4738 5.696C11.8411 7.07757 11.8411 9.31652 10.4738 10.696Z" fill="#E5E4E7"/>
</svg>
