<svg width="16" height="20" viewBox="0 0 16 20" fill="none" xmlns="http://www.w3.org/2000/svg">
<path d="M13.6423 2.35901C12.8827 1.59243 11.9954 0.998221 11.0035 0.591643C8.01852 -0.627303 4.61852 0.0708542 2.3428 2.36217C0.833228 3.88638 0 5.8269 0 7.83348C0 9.83689 0.832706 11.7795 2.3428 13.3022L3.17342 14.1319C4.8404 15.7924 6.27793 17.2261 7.51132 19.219L7.99111 19.9995L8.47403 19.219C9.70742 17.2261 11.1449 15.7924 12.8091 14.1337L13.642 13.2995C16.7859 10.1301 16.7859 5.52874 13.6423 2.35901ZM10.4738 10.6945C9.10338 12.0782 6.88196 12.0782 5.51126 10.6945C4.14108 9.31558 4.14108 7.07611 5.51126 5.69453C6.88196 4.31559 9.10338 4.31559 10.4738 5.69453C11.8411 7.07611 11.8411 9.31505 10.4738 10.6945Z" fill="#F48A71"/>
</svg>
