<svg width="18" height="18" viewBox="0 0 18 18" fill="none" xmlns="http://www.w3.org/2000/svg">
<path d="M17.4 0.613295C16.88 0.0932946 16.04 0.0932946 15.52 0.613295L8.99999 7.11996L2.47999 0.599961C1.95999 0.0799609 1.11999 0.0799609 0.599991 0.599961C0.0799915 1.11996 0.0799915 1.95996 0.599991 2.47996L7.11999 8.99996L0.599991 15.52C0.0799915 16.04 0.0799915 16.88 0.599991 17.4C1.11999 17.92 1.95999 17.92 2.47999 17.4L8.99999 10.88L15.52 17.4C16.04 17.92 16.88 17.92 17.4 17.4C17.92 16.88 17.92 16.04 17.4 15.52L10.88 8.99996L17.4 2.47996C17.9067 1.97329 17.9067 1.11996 17.4 0.613295Z" fill="#111322"/>
</svg>
